<svg version="1.2" xmlns="http://www.w3.org/2000/svg" viewBox="0 0 100 100" width="100" height="100">
	<title>Analytics</title>
	<style>
		.s0 { fill: #aeabab } 
	</style>
	<g id="_28-Analytics">
		<path class="s0" d="m98.1 26v49.7c0 3.6-3 6.6-6.6 6.6h-82.9c-3.6 0-6.6-3-6.6-6.6v-49.7c0-3.6 3-6.6 6.6-6.6h17.2l-4 5h-14.9v43.1h86.2v-43.2h-22.4l4.3-5h16.4c3.7 0 6.7 3 6.7 6.7zm-36.2-6.7h-5l2.7 2.7zm-13.9 5h-13.4l4-5h4.4zm8.6 51.4c0-1-0.7-1.7-1.7-1.7h-9.9c-1 0-1.7 0.7-1.7 1.7 0 1 0.7 1.7 1.7 1.7h10c1-0.1 1.6-0.7 1.6-1.7zm8.3 16.6h-29.8c-1.8 0-3.3 1.5-3.3 3.3v3.3h36.5v-3.3c-0.1-1.9-1.6-3.3-3.4-3.3zm-23.8-6.7c-0.5 1.2-1 2.3-1.7 3.3h21.2c-0.7-1-1.3-2.2-1.7-3.3zm22.2-43.1h-6.6c-1 0-1.7 0.7-1.7 1.7v11.6h9.9v-11.6c0-1-0.6-1.7-1.6-1.7zm19.8-13.2h-6.6c-1 0-1.7 0.7-1.7 1.7v24.9h9.9v-25c0.1-1-0.6-1.6-1.6-1.6zm-67.9 26.5h9.9v-6.6c0-1-0.7-1.7-1.7-1.7h-6.6c-1 0-1.7 0.7-1.7 1.7v6.6zm21.5-21.5c-1 0-1.7 0.7-1.7 1.7v19.9h10v-20c0-1-0.7-1.7-1.7-1.7h-6.6zm-10.2-5.3l9.8-12.3c-1-0.5-1.8-1.2-2.7-2l-9.8 12.3c1.2 0.5 2 1.1 2.7 2zm26.6-4.2c0.7-1 1.3-1.8 2.3-2.3l-8.4-8.5c-0.7 1-1.5 1.7-2.3 2.3zm13.5-0.7l9.3-10.8c-1-0.7-1.8-1.3-2.5-2.2l-9.3 10.9c0.8 0.5 1.8 1.3 2.5 2.1zm-26.5-9.7c2.8 0 5-2.2 5-5 0-2.8-2.2-5-5-5-2.8 0-5 2.2-5 5 0 2.8 2.1 5 5 5zm20 19.9c2.8 0 5-2.2 5-5 0-2.8-2.2-5-5-5-2.8 0-5 2.2-5 5 0 2.8 2.2 5 5 5zm19.7-23.2c2.8 0 5-2.2 5-5 0-2.8-2.2-5-5-5-2.8 0-5 2.2-5 5 0 2.8 2.2 5 5 5zm-59.6 28.1c2.8 0 5-2.2 5-5 0-2.8-2.2-5-5-5-2.8 0-5 2.2-5 5 0 2.8 2.2 5 5 5zm-10 21.6c0 1 0.7 1.7 1.7 1.7h76.2c1 0 1.7-0.7 1.7-1.7 0-1-0.7-1.7-1.7-1.7h-76.2c-1 0-1.7 0.7-1.7 1.7z"/>
	</g>
</svg>