<?xml version="1.0" encoding="utf-8"?>
<!-- Generator: Adobe Illustrator 27.8.0, SVG Export Plug-In . SVG Version: 6.00 Build 0)  -->
<svg version="1.1" id="Layer_1" xmlns="http://www.w3.org/2000/svg" xmlns:xlink="http://www.w3.org/1999/xlink" x="0px" y="0px"
	 viewBox="0 0 100 100" style="enable-background:new 0 0 100 100;" xml:space="preserve">
<style type="text/css">
	.st0{fill-rule:evenodd;clip-rule:evenodd;fill:#2E8CCA;}
</style>
<g id="Layer_x0020_1">
	<g id="_279527056">
		<path id="_382717560" class="st0" d="M3.1,19.7v53.3c2.2-2.8,5.7-4.7,9.6-4.7s7.3,1.8,9.6,4.7V19.7v0c0-5.3-4.3-9.6-9.6-9.6
			C7.4,10.1,3.1,14.4,3.1,19.7L3.1,19.7z"/>
		<path id="_382717176" class="st0" d="M60.9,77.9h-5.4v3.4h10.7v-3.4H60.9z"/>
		<path id="_382717656" class="st0" d="M81,77.9h-5.4v3.4h10.7v-3.4H81z"/>
		<path id="_382717416" class="st0" d="M40.8,77.9h-5.4v3.4h10.7v-3.4H40.8z"/>
		<path id="_382717104" class="st0" d="M60.9,52.8L56,55.7l0,0l-3.6,2.1l8.6,5l8.6-5L60.9,52.8z"/>
		<path id="_382717368" class="st0" d="M77.6,29.6v6.7h6.7v-6.7L77.6,29.6L77.6,29.6z"/>
		<path id="_382717320" class="st0" d="M57.5,29.6v6.7h6.7v-6.7L57.5,29.6L57.5,29.6z"/>
		<path id="_279527104" class="st0" d="M37.4,29.6v6.7h6.7v-6.7L37.4,29.6L37.4,29.6z"/>
		<path id="_279526960" class="st0" d="M96.8,21h-72v59.4c0,0.1,0,0.2,0,0.3v0l0,0.1v0v0l0,0l0,0l0,0l0,0l0,0l0,0l0,0l0,0l0,0l0,0
			l0,0l0,0l0,0l0,0l0,0l0,0l0,0l0,0l0,0l0,0l0,0l0,0l0,0l0,0l0,0l0,0l0,0l0,0l0,0l0,0l0,0l0,0l0,0l0,0l0,0l0,0h0h0h0h0h0h0h0h0h0h0
			h0h0h0h0c-0.7,0-1.3-0.6-1.3-1.3c0-5.3-4.3-9.6-9.6-9.6S3.2,75,3.2,80.3c0,5.3,4.3,9.6,9.6,9.6h84.1L96.8,21L96.8,21z M54.9,37.6
			v-9.3c0-0.7,0.6-1.3,1.3-1.3h9.3c0.7,0,1.3,0.6,1.3,1.3v9.3c0,0.7-0.6,1.3-1.3,1.3h-3.4v11.7l4.4,2.6l9.5-3.1
			c3.2-1,3.6-2.3,3.6-3.2v-8h-3.4c-0.7,0-1.3-0.6-1.3-1.3v-9.3c0-0.7,0.6-1.3,1.3-1.3h9.3c0.7,0,1.3,0.6,1.3,1.3v9.3
			c0,0.7-0.6,1.3-1.3,1.3h-3.4v8c0,2.6-1.8,4.5-5.4,5.7l-7.3,2.3l2.8,1.6h4.2c3.2,0,5.7,2.6,5.7,5.7v13.1h5.4c0.7,0,1.3,0.6,1.3,1.3
			v6c0,0.7-0.6,1.3-1.3,1.3H74.3c-0.7,0-1.3-0.6-1.3-1.3v-6c0-0.7,0.6-1.3,1.3-1.3h5.4V62.2c0-1.7-1.4-3.2-3.2-3.2h-4.2L62.2,65
			v10.4h5.4c0.7,0,1.3,0.6,1.3,1.3v6c0,0.7-0.6,1.3-1.3,1.3H54.2c-0.7,0-1.3-0.6-1.3-1.3v-6c0-0.7,0.6-1.3,1.3-1.3h5.4V65l-10.2-5.9
			h-4.2c-1.7,0-3.2,1.4-3.2,3.2v13.1h5.4c0.7,0,1.3,0.6,1.3,1.3v6c0,0.7-0.6,1.3-1.3,1.3H34.1c-0.7,0-1.3-0.6-1.3-1.3v-6
			c0-0.7,0.6-1.3,1.3-1.3h5.4V62.2c0-3.2,2.6-5.7,5.7-5.7h4.2l2.8-1.6l-7.3-2.3c-3.5-1.1-5.4-3.1-5.4-5.7v-8h-3.4
			c-0.7,0-1.3-0.6-1.3-1.3v-9.3c0-0.7,0.6-1.3,1.3-1.3h9.3c0.7,0,1.3,0.6,1.3,1.3v9.3c0,0.7-0.6,1.3-1.3,1.3H42v8
			c0,0.9,0.4,2.2,3.6,3.2l9.5,3.1l4.4-2.6V38.9h-3.3C55.5,38.9,54.9,38.3,54.9,37.6L54.9,37.6z"/>
	</g>
</g>
</svg>
