<?xml version="1.0" encoding="utf-8"?>
<!-- Generator: Adobe Illustrator 27.8.0, SVG Export Plug-In . SVG Version: 6.00 Build 0)  -->
<svg version="1.1" id="Layer_1" xmlns="http://www.w3.org/2000/svg" xmlns:xlink="http://www.w3.org/1999/xlink" x="0px" y="0px"
	 viewBox="0 0 100 100" style="enable-background:new 0 0 100 100;" xml:space="preserve">
<style type="text/css">
	.st0{fill-rule:evenodd;clip-rule:evenodd;fill:#2E8CCA;}
</style>
<g>
	<g>
		<path class="st0" d="M95.4,72.9H72.9l-5-5.4h21c0.5,0,0.8-0.4,0.8-0.8V21.5c0-0.5-0.4-0.8-0.8-0.8H11c-0.5,0-0.9,0.4-0.9,0.8v45.1
			c0,0.5,0.4,0.8,0.9,0.8h31.8l-1.5,5.4H4.6c-0.9,0-1.6-0.7-1.6-1.6V17.7h94v53.6C97,72.2,96.3,72.9,95.4,72.9z M66.3,65.8l-7.2-7.6
			c0.4-0.8,0.7-1.5,0.9-2.4c1.5-5.5-1.8-11.3-7.4-12.8c-0.9-0.3-1.8-0.4-2.7-0.4c-4.7,0-8.9,3.2-10.1,7.8c-1.2,4.4,0.7,9.1,4.4,11.5
			l-1.1,3.9H11.9V22.5h76.2v43.4H66.3z M19.3,39h61.3c0.5,0,0.9-0.4,0.9-0.9V28c0-0.5-0.4-0.9-0.9-0.9H19.3c-0.5,0-0.8,0.4-0.8,0.9
			v10.1C18.5,38.6,18.9,39,19.3,39z M72.7,28.8h7v8.4h-7V28.8z M64,28.8h7v8.4h-7V28.8z M62.2,37.2h-7v-8.4h7V37.2z M46.4,28.8h7
			v8.4h-7V28.8z M37.7,28.8h7v8.4h-7V28.8z M28.9,37.2v-8.4h7v8.4H28.9z M20.2,37.2v-8.4h7v8.4H20.2z M37.2,60.5
			c0.5,0,0.9-0.4,0.9-0.8c0-0.5-0.4-0.9-0.9-0.9H19.3c-0.5,0-0.8,0.4-0.8,0.9c0,0.5,0.4,0.8,0.8,0.8H37.2z M30.8,54.3
			c0.5,0,0.9-0.4,0.9-0.8c0-0.5-0.4-0.9-0.9-0.9H19.3c-0.5,0-0.8,0.4-0.8,0.9c0,0.5,0.4,0.8,0.8,0.8H30.8z M64,72.9h-6.2l-1.3-5.4
			H59L64,72.9z M56.2,65.8l-0.4-1.7l1.5,1.7H56.2z M51.2,72.9H48l1.5-5.4H50L51.2,72.9z"/>
		<g id="_326087144_00000002382174014395211500000005698390855424615076_">
			<path class="st0" d="M50,62c-0.8,0-1.5-0.1-2.3-0.3c-4.7-1.3-7.5-6.1-6.2-10.8c1-3.8,4.5-6.6,8.5-6.6c0.8,0,1.5,0.1,2.3,0.3
				c4.7,1.3,7.5,6,6.2,10.8C57.5,59.3,53.9,62,50,62z"/>
			<path class="st0" d="M34.7,91.2h-14c-0.9,0-1.6-0.7-1.6-1.6c0-0.9,0.7-1.6,1.6-1.6h14c0.9,0,1.6,0.7,1.6,1.6
				C36.3,90.4,35.6,91.2,34.7,91.2z M41.4,86.6c-0.1,0-0.3-0.1-0.4-0.1c-0.9-0.3-1.4-1.1-1.1-2l6.7-24.8c0.3-0.8,1.1-1.3,2-1.1
				c0.8,0.2,1.3,1.1,1.1,1.9l-6.7,24.8C42.8,86,42.2,86.6,41.4,86.6z M57.3,86.3c-0.7,0-1.4-0.5-1.5-1.3l-5.7-24.5
				c-0.2-0.8,0.3-1.7,1.1-1.8c0.9-0.2,1.8,0.3,1.9,1.1l5.7,24.5c0.2,0.9-0.3,1.7-1.2,1.9C57.5,86.3,57.4,86.3,57.3,86.3z"/>
			<path class="st0" d="M80.7,87.6c-0.4,0-0.8-0.2-1.1-0.5L53.7,59.6c-0.6-0.7-0.5-1.7,0.1-2.3c0.7-0.6,1.7-0.6,2.3,0.1L81.9,85
				c0.5,0.6,0.5,1.7-0.1,2.3C81.6,87.4,81.2,87.6,80.7,87.6z"/>
		</g>
		<path class="st0" d="M3,16.2V5.5c0-0.9,0.7-1.5,1.6-1.5h90.8c0.9,0,1.6,0.7,1.6,1.5v10.7H3z M11.1,10.9h5.3c0.5,0,0.9-0.4,0.9-0.9
			c0-0.5-0.4-0.8-0.9-0.8h-5.3c-0.5,0-0.9,0.4-0.9,0.8C10.2,10.5,10.6,10.9,11.1,10.9z M23.7,10.9H29c0.5,0,0.9-0.4,0.9-0.9
			c0-0.5-0.4-0.8-0.9-0.8h-5.3c-0.5,0-0.8,0.4-0.8,0.8C22.9,10.5,23.3,10.9,23.7,10.9z"/>
		<path class="st0" d="M15.8,96.1c-0.5,0-1.1-0.1-1.7-0.3c-3.4-0.9-5.6-4.5-4.6-8c0.8-2.8,3.4-4.8,6.3-4.8c0.6,0,1.1,0.1,1.7,0.2
			c1.7,0.5,3.1,1.5,4,3.1c0.9,1.5,1.1,3.2,0.7,5C21.3,94.1,18.7,96.1,15.8,96.1z M39.6,96.1c-0.5,0-1.1-0.1-1.7-0.3
			c-1.7-0.5-3.1-1.5-4-3.1c-0.8-1.5-1.1-3.2-0.6-5c0.7-2.8,3.3-4.8,6.3-4.8c0.5,0,1.1,0.1,1.7,0.2c1.7,0.5,3.1,1.5,4,3.1
			c0.8,1.5,1.1,3.2,0.6,5C45.2,94.1,42.6,96.1,39.6,96.1z M58.1,96.1c-0.5,0-1.1-0.1-1.7-0.3c-3.4-0.9-5.6-4.5-4.6-8
			c0.8-2.8,3.4-4.8,6.4-4.8c0.5,0,1.1,0.1,1.7,0.2c1.7,0.5,3.1,1.5,4,3.1c0.9,1.5,1.1,3.2,0.7,5C63.6,94.1,61,96.1,58.1,96.1z
			 M84.2,96.1c-0.5,0-1.1-0.1-1.7-0.3c-3.4-0.9-5.6-4.4-4.6-8c0.8-2.8,3.4-4.8,6.3-4.8c0.6,0,1.1,0.1,1.7,0.2c1.7,0.5,3.1,1.5,4,3.1
			c0.9,1.5,1.1,3.2,0.7,5C89.8,94.1,87.2,96.1,84.2,96.1z"/>
	</g>
</g>
</svg>
