<?xml version="1.0" encoding="utf-8"?>
<!-- Generator: Adobe Illustrator 27.8.0, SVG Export Plug-In . SVG Version: 6.00 Build 0)  -->
<svg version="1.1" id="Layer_1" xmlns="http://www.w3.org/2000/svg" xmlns:xlink="http://www.w3.org/1999/xlink" x="0px" y="0px"
	 viewBox="0 0 100 100" style="enable-background:new 0 0 100 100;" xml:space="preserve">
<style type="text/css">
	.st0{fill:none;stroke:#4D4D4D;stroke-miterlimit:10;}
</style>
<path class="st0" d="M52.8,54.5c0-0.7,0.6-1.3,1.3-1.3h2.3c0.7,0,1.3,0.6,1.3,1.3s-0.6,1.3-1.3,1.3h-2.3
	C53.4,55.8,52.8,55.2,52.8,54.5z M56.4,40h-2.3c-0.7,0-1.3,0.6-1.3,1.3s0.6,1.3,1.3,1.3h2.3c0.7,0,1.3-0.6,1.3-1.3S57.1,40,56.4,40z
	 M51.2,40h-2.3c-0.7,0-1.3,0.6-1.3,1.3s0.6,1.3,1.3,1.3h2.3c0.7,0,1.3-0.6,1.3-1.3S51.9,40,51.2,40z M48.9,55.8h2.3
	c0.7,0,1.3-0.6,1.3-1.3s-0.6-1.3-1.3-1.3h-2.3c-0.7,0-1.3,0.6-1.3,1.3S48.2,55.8,48.9,55.8z M46,40h-2.3c-0.7,0-1.3,0.6-1.3,1.3
	s0.6,1.3,1.3,1.3H46c0.7,0,1.3-0.6,1.3-1.3S46.7,40,46,40L46,40z M43.7,55.8h2.3c0.7,0,1.3-0.6,1.3-1.3s-0.6-1.3-1.3-1.3h-2.3
	c-0.7,0-1.3,0.6-1.3,1.3S43,55.8,43.7,55.8z M37.1,69.3v20.6c0,1-0.8,1.8-1.8,1.8H27l0.8,1.9c0.3,0.6,0,1.4-0.7,1.7
	c-0.2,0.1-0.3,0.1-0.5,0.1H15.4c-0.7,0-1.3-0.6-1.3-1.3c0-0.2,0-0.3,0.1-0.5l0.8-2H6.7c-1,0-1.8-0.8-1.8-1.8V69.3
	c0-1,0.8-1.8,1.8-1.8h28.6C36.3,67.6,37.1,68.4,37.1,69.3z M24.7,92.9l-0.5-1.2h-6.5l-0.5,1.2H24.7z M34.5,87.9H7.5v1.3h27.1
	L34.5,87.9L34.5,87.9z M95.1,6.4V27c0,1-0.8,1.8-1.8,1.8H85l0.8,1.9c0.3,0.6,0,1.4-0.7,1.7c-0.2,0.1-0.3,0.1-0.5,0.1H73.5
	c-0.7,0-1.3-0.6-1.3-1.3c0-0.2,0-0.3,0.1-0.5l0.8-2h-8.4c-1,0-1.8-0.8-1.8-1.8V6.4c0-1,0.8-1.8,1.8-1.8h28.6
	C94.3,4.6,95.1,5.4,95.1,6.4z M82.8,30l-0.5-1.2h-6.5L75.3,30H82.8z M92.6,24.9H65.5v1.3h27.1V24.9z M4.9,27V6.4
	c0-1,0.8-1.8,1.7-1.8h28.6c1,0,1.8,0.8,1.8,1.8V27c0,1-0.8,1.8-1.8,1.8H27l0.8,1.9c0.3,0.6,0,1.4-0.7,1.7c-0.2,0.1-0.3,0.1-0.5,0.1
	H15.4c-0.7,0-1.3-0.6-1.3-1.3c0-0.2,0-0.3,0.1-0.5l0.8-2H6.7C5.7,28.7,4.9,27.9,4.9,27z M24.7,30l-0.5-1.2h-6.5L17.3,30H24.7z
	 M7.5,26.3h27.1v-1.3H7.5V26.3z M48.7,33h2.5V17.9h9.2v-2.5H39.6v2.5h9.2V33z M51.3,67h-2.5v11.3h-9.2v2.5h20.9v-2.5h-9.1V67z
	 M95.1,69.3v20.6c0,1-0.8,1.8-1.8,1.8H85l0.8,1.9c0.3,0.6,0,1.4-0.7,1.7c-0.2,0.1-0.3,0.1-0.5,0.1H73.5c-0.7,0-1.3-0.6-1.3-1.3
	c0-0.2,0-0.3,0.1-0.5l0.8-2h-8.4c-1,0-1.8-0.8-1.8-1.8V69.3c0-1,0.8-1.8,1.8-1.8h28.6C94.3,67.5,95.1,68.4,95.1,69.3L95.1,69.3z
	 M82.8,92.9l-0.5-1.2h-6.5l-0.5,1.2H82.8z M92.6,87.9H65.5v1.3h27.1V87.9z M67.2,60.3h-5.3v2.9c0,0.7-0.6,1.3-1.3,1.3h-21
	c-0.7,0-1.3-0.6-1.3-1.3v-2.9h-5.4c-1.2,0-2.1-1-2.1-2.1v-2.3h-0.8c-1.4,0-2.6-1.1-2.6-2.4V42.4c0-1.3,1.2-2.4,2.6-2.4h0.8v-2.4
	c0-1.2,1-2.1,2.1-2.1h34.3c1.2,0,2.1,1,2.1,2.1V40h0.8c1.4,0,2.6,1.1,2.6,2.4v10.9c0,1.3-1.2,2.4-2.6,2.4h-0.8v2.3
	C69.3,59.3,68.3,60.3,67.2,60.3z M67.2,47.1h-5.3v1.7h5.3c1.2,0,2.1,1,2.1,2.1v2.4h0.8c0,0,0,0,0.1,0V42.6c0,0,0,0-0.1,0h-0.8v2.4
	C69.3,46.1,68.3,47.1,67.2,47.1L67.2,47.1z M33.2,44.5h33.5v-6.5H33.2V44.5z M32.9,48.7h5.4v-1.7h-5.4c-1.2,0-2.1-1-2.1-2.1v-2.4
	h-0.8c0,0,0,0-0.1,0v10.7c0,0,0,0,0.1,0h0.8v-2.4C30.7,49.7,31.7,48.7,32.9,48.7z M66.8,51.3H33.2v6.5h33.5L66.8,51.3L66.8,51.3z"/>
</svg>
