<?xml version="1.0" encoding="utf-8"?>
<!-- Generator: Adobe Illustrator 27.8.0, SVG Export Plug-In . SVG Version: 6.00 Build 0)  -->
<svg version="1.1" id="Layer_1" xmlns="http://www.w3.org/2000/svg" xmlns:xlink="http://www.w3.org/1999/xlink" x="0px" y="0px"
	 viewBox="0 0 100 100" style="enable-background:new 0 0 100 100;" xml:space="preserve">
<style type="text/css">
	.st0{fill-rule:evenodd;clip-rule:evenodd;fill:none;stroke:#4D4D4D;stroke-miterlimit:10;}
</style>
<path class="st0" d="M13.5,96.8c0-0.5,0.4-0.8,0.8-0.9h11.9c0.5,0,0.9,0.4,0.9,0.9v0.9H13.5L13.5,96.8z M22.1,94.1h-3.6v-1.4h3.6
	C22.1,92.6,22.1,94.1,22.1,94.1z M2.5,66.3h35.7v24H2.5V66.3z M62.6,16.2C61.7,16.3,61,17.1,61,18v5.1c0,0.9,0.7,1.7,1.6,1.8
	l2.2,0.3c0.2,0.8,0.6,1.5,0.9,2.2l-1.4,1.8c-0.6,0.7-0.5,1.8,0.1,2.4l3.6,3.6c0.7,0.7,1.7,0.7,2.5,0.1l1.8-1.4
	c0.7,0.4,1.5,0.7,2.2,0.9l0.3,2.2c0.1,0.9,0.9,1.6,1.8,1.6h5.1c0.9,0,1.7-0.7,1.8-1.6l0.3-2.2c0.8-0.2,1.5-0.6,2.2-0.9l1.8,1.4
	c0.7,0.6,1.8,0.5,2.4-0.1l3.6-3.6c0.7-0.7,0.7-1.7,0.1-2.4l-1.4-1.8c0.4-0.7,0.7-1.5,0.9-2.2l2.2-0.3c0.9-0.1,1.6-0.9,1.6-1.8V18
	c0-0.9-0.7-1.7-1.6-1.8l-2.2-0.3c-0.3-0.8-0.6-1.5-0.9-2.2l1.4-1.8c0.6-0.7,0.5-1.8-0.1-2.4l-3.6-3.6c-0.7-0.7-1.7-0.7-2.4-0.1
	l-1.8,1.4c-0.7-0.4-1.5-0.7-2.2-0.9l-0.3-2.2c-0.1-0.9-0.9-1.6-1.8-1.6h-5.1c-0.9,0-1.7,0.7-1.8,1.6l-0.3,2.2
	c-0.8,0.2-1.5,0.6-2.2,0.9l-1.8-1.4c-0.7-0.6-1.8-0.5-2.5,0.1l-3.6,3.6c-0.7,0.7-0.7,1.7-0.1,2.4l1.4,1.8c-0.4,0.7-0.7,1.5-0.9,2.2
	L62.6,16.2z M79.2,30c-5.2,0-9.4-4.2-9.4-9.4c0-5.2,4.2-9.4,9.4-9.4c5.2,0,9.4,4.2,9.4,9.4l0,0C88.7,25.8,84.5,30,79.2,30z
	 M79.2,13.5c3.9,0,7.1,3.2,7.1,7.1s-3.2,7.1-7.1,7.1c-3.9,0-7.1-3.2-7.1-7.1S75.3,13.5,79.2,13.5L79.2,13.5z M27.7,19.4
	c-0.1-2.5-0.4-4.9-1.1-7.3c1.2-0.6,2.4-1.4,3.5-2.3c2.4,2.6,3.9,6,4.1,9.6H27.7z M19.6,5.3c1.6,0.7,3.1,2.6,4.2,5.5
	c-1.4,0.5-2.8,0.8-4.2,0.9V5.3z M23.4,5.4c1.1,1.3,2,2.9,2.6,4.5c0.9-0.5,1.7-1,2.5-1.7C27,7,25.3,6,23.4,5.4z M17.3,5.3v6.4
	c-1.5-0.1-2.9-0.4-4.2-0.9C14.1,7.9,15.7,6,17.3,5.3L17.3,5.3z M10.9,9.9c0.6-1.6,1.5-3.1,2.6-4.5C11.6,6,9.9,7,8.4,8.2
	C9.2,8.9,10,9.4,10.9,9.9L10.9,9.9z M17.3,14.1v5.3h-5.9c0.1-2.1,0.4-4.3,0.9-6.3C13.9,13.6,15.6,14,17.3,14.1L17.3,14.1z
	 M17.3,21.7v5.3c-1.7,0.1-3.4,0.4-5,1c-0.5-2.1-0.8-4.2-0.9-6.3H17.3z M17.3,29.4v6.4c-1.6-0.7-3.1-2.6-4.2-5.5
	C14.4,29.8,15.8,29.5,17.3,29.4L17.3,29.4z M13.5,35.7c-1.1-1.3-2-2.9-2.6-4.5c-0.9,0.5-1.7,1-2.5,1.7C9.9,34.1,11.6,35.1,13.5,35.7
	L13.5,35.7z M19.6,35.8v-6.4c1.5,0.1,2.9,0.4,4.2,0.9C22.7,33.2,21.2,35.1,19.6,35.8z M26,31.2c-0.6,1.6-1.5,3.1-2.6,4.5
	c1.8-0.6,3.6-1.5,5.1-2.8C27.7,32.3,26.9,31.7,26,31.2z M19.6,27.1v-5.3h5.8c-0.1,2.1-0.4,4.3-0.9,6.3C23,27.5,21.3,27.2,19.6,27.1
	L19.6,27.1z M19.6,19.4v-5.3c1.7-0.1,3.4-0.4,5-1c0.5,2.1,0.8,4.2,0.9,6.3H19.6z M6.7,9.8c1.1,0.9,2.2,1.7,3.5,2.3
	c-0.6,2.4-1,4.8-1.1,7.3H2.5C2.8,15.8,4.2,12.4,6.7,9.8L6.7,9.8z M2.5,21.7h6.6c0.1,2.5,0.4,4.9,1.1,7.3c-1.2,0.6-2.4,1.4-3.5,2.3
	C4.2,28.7,2.8,25.3,2.5,21.7L2.5,21.7z M30.2,31.3c-1.1-0.9-2.2-1.7-3.5-2.3c0.6-2.4,1-4.8,1.1-7.3h6.6
	C34.1,25.3,32.6,28.7,30.2,31.3L30.2,31.3z M48.8,36.5c7.9,0,14.2,6.4,14.2,14.2S56.7,65,48.8,65s-14.2-6.4-14.2-14.2l0,0
	C34.6,42.9,41,36.5,48.8,36.5z M56.4,50.8c0-2.7-1.5-5.2-3.8-6.6c-0.6-0.3-1.3-0.1-1.6,0.4s-0.1,1.3,0.4,1.6c2.5,1.4,3.4,4.6,2,7.1
	c-1.4,2.5-4.6,3.4-7.1,2c-2.5-1.4-3.4-4.6-2-7.1c0.5-0.8,1.2-1.5,2-2c0.6-0.3,0.8-1,0.4-1.6c-0.3-0.6-1-0.8-1.6-0.4h0
	c-3.6,2-4.9,6.7-2.9,10.3c2,3.6,6.7,4.9,10.3,2.9C54.9,56,56.4,53.5,56.4,50.8L56.4,50.8z M47.7,46.5c0,0.7,0.5,1.2,1.2,1.2
	s1.2-0.5,1.2-1.2v-4.2c0-0.7-0.5-1.2-1.2-1.2s-1.2,0.5-1.2,1.2V46.5z M63,66.3h32.6v20.8h-9.1c-0.3,0-0.6,0.1-0.8,0.3l-1,1H74l-1-1
	c-0.2-0.2-0.5-0.3-0.8-0.3H63V66.3z M97.2,90.6c0,0.7-0.5,1.2-1.2,1.2H62.7c-0.7,0-1.2-0.5-1.2-1.2l0,0v-1.2h10.2l1,1
	c0.2,0.2,0.5,0.3,0.8,0.3h11.7c0.3,0,0.6-0.1,0.8-0.3l1-1h10.2L97.2,90.6L97.2,90.6z M77.6,60.3v-5.5H66c-0.7,0-1.2-0.5-1.2-1.2
	c0-0.6,0.5-1.2,1.2-1.2h12.8c0.6,0,1.2,0.5,1.2,1.2l0,0v6.6c0,0.6-0.5,1.2-1.2,1.2C78.2,61.4,77.6,60.9,77.6,60.3L77.6,60.3
	L77.6,60.3z M80,47.9c0,0.6-0.5,1.2-1.2,1.2H66c-0.7,0-1.2-0.5-1.2-1.2c0-0.7,0.5-1.2,1.2-1.2h11.6v-5.5c0-0.6,0.5-1.2,1.2-1.2
	s1.2,0.5,1.2,1.2l0,0L80,47.9L80,47.9z M32.8,53.6c0,0.6-0.5,1.2-1.2,1.2H20v5.5c0,0.6-0.5,1.2-1.2,1.2c-0.6,0-1.2-0.5-1.2-1.2l0,0
	v-6.6c0-0.6,0.5-1.2,1.2-1.2l0,0h12.8C32.3,52.5,32.8,53,32.8,53.6L32.8,53.6L32.8,53.6z M32.8,47.9c0,0.6-0.5,1.2-1.2,1.2H18.9
	c-0.6,0-1.2-0.5-1.2-1.2v-6.6c0-0.6,0.5-1.2,1.2-1.2c0.6,0,1.2,0.5,1.2,1.2l0,0v5.5h11.6C32.3,46.7,32.8,47.2,32.8,47.9L32.8,47.9z"
	/>
</svg>
