<?xml version="1.0" encoding="utf-8"?>
<!-- Generator: Adobe Illustrator 27.8.0, SVG Export Plug-In . SVG Version: 6.00 Build 0)  -->
<svg version="1.1" id="Layer_1" xmlns="http://www.w3.org/2000/svg" xmlns:xlink="http://www.w3.org/1999/xlink" x="0px" y="0px"
	 viewBox="0 0 100 100" style="enable-background:new 0 0 100 100;" xml:space="preserve">
<style type="text/css">
	.st0{fill:none;stroke:#4D4D4D;stroke-miterlimit:10;}
</style>
<g>
	<path class="st0" d="M70.5,38.3l-9.1-1.2c-2.4-0.3-4.5-1.8-5.6-3.9l-4.1-7.8c-0.7-1.2-2.7-1.2-3.3,0l-4.1,7.8
		c-1.1,2.1-3.2,3.5-5.6,3.9l-9.1,1.2c-1.4,0.2-2.1,1.7-1,2.6l6.6,6.1c1.8,1.7,2.6,4,2.2,6.4L35.7,62c-0.2,1.3,1.4,2.3,2.7,1.6
		l8.2-4.1c2.1-1,4.7-1,6.8,0l8.2,4.1c1.3,0.7,2.9-0.3,2.7-1.6l-1.6-8.6c-0.4-2.4,0.4-4.7,2.2-6.4l6.6-6.1
		C72.5,40,71.9,38.6,70.5,38.3L70.5,38.3z"/>
	<path class="st0" d="M86.1,2.3H13.9c-2.6,0-4.7,2.1-4.7,4.7v84.1c0,2.2,1.1,4.2,2.9,5.5c1.1,0.7,2.3,1.1,3.6,1.1
		c0.9,0,1.8-0.2,2.6-0.5l31.2-13.6c0.2-0.1,0.5-0.1,0.7,0l31.2,13.6c2,0.9,4.3,0.7,6.2-0.5c1.8-1.2,2.9-3.2,2.9-5.5V7
		C90.7,4.4,88.6,2.3,86.1,2.3z M75.3,45.1l-6.6,6.1c-0.4,0.4-0.6,0.8-0.5,1.3l1.6,8.6c1.1,5.8-5.2,10.3-10.7,7.6l-8.2-4.1
		c-0.6-0.3-1.3-0.3-1.8,0l-8.2,4.1c-5.5,2.7-11.7-1.8-10.7-7.6l1.6-8.6c0.1-0.5-0.1-0.9-0.5-1.3l-6.6-6.1
		c-4.5-4.1-2.1-11.4,4.1-12.2l9.1-1.2c0.6-0.1,1.1-0.4,1.4-0.9l4.1-7.8c2.7-5.2,10.5-5.2,13.2,0l4.1,7.8c0.3,0.5,0.8,0.8,1.4,0.9
		l9.1,1.2C77.4,33.7,79.8,41,75.3,45.1L75.3,45.1z"/>
</g>
</svg>
