<?xml version="1.0" encoding="utf-8"?>
<!-- Generator: Adobe Illustrator 27.8.0, SVG Export Plug-In . SVG Version: 6.00 Build 0)  -->
<svg version="1.1" id="Layer_1" xmlns="http://www.w3.org/2000/svg" xmlns:xlink="http://www.w3.org/1999/xlink" x="0px" y="0px"
	 viewBox="0 0 100 100" style="enable-background:new 0 0 100 100;" xml:space="preserve">
<style type="text/css">
	.st0{fill:none;stroke:#4D4D4D;stroke-miterlimit:10;}
</style>
<g id="Layer_2_00000021101193926872288740000014488288718530636949_">
	<g id="_087.help">
		<path class="st0" d="M75.9,2.7H24.1C12.2,2.7,2.7,12.2,2.7,24c0,0,0,0,0,0V76c0,11.8,9.6,21.4,21.4,21.4c0,0,0,0,0,0h51.9
			c11.8,0,21.4-9.6,21.4-21.4c0,0,0,0,0,0V24.1C97.3,12.2,87.8,2.7,75.9,2.7C75.9,2.7,75.9,2.7,75.9,2.7L75.9,2.7z M50,76.3
			c-14.5,0-26.3-11.8-26.3-26.3S35.5,23.7,50,23.7S76.3,35.5,76.3,50C76.3,64.5,64.5,76.3,50,76.3z"/>
		<path class="st0" d="M50,28.8c-11.7,0-21.2,9.5-21.2,21.2S38.3,71.2,50,71.2S71.2,61.7,71.2,50l0,0C71.2,38.3,61.7,28.8,50,28.8z
			 M49.7,63.3c-1.6,0.1-2.9-1.2-3-2.8c0-0.1,0-0.1,0-0.1c0.2-1.7,1.6-2.9,3.3-2.8c1.5,0.1,2.7,1.3,2.8,2.8
			C52.7,62.1,51.4,63.3,49.7,63.3L49.7,63.3z M56.5,49.7c-0.4,0.3-0.8,0.5-1.3,0.8c-1.7,1.1-3.2,2.4-2.8,4.9h-5.2
			c-0.4-2.5,0.3-4.7,2.1-6.4c0.8-0.7,1.7-1.3,2.6-2.1c0.9-0.6,1.4-1.7,1.4-2.7c0-1.6-0.8-2.7-2.1-3c-1.8-0.5-3.6,0.1-4.4,1.6
			c-0.4,0.9-0.7,1.9-0.9,2.9h-5.4c-0.4-2.8,1.4-6.2,4.2-7.7c4-2,8-1.8,11.7,0.5C60.6,41.1,60.5,46.9,56.5,49.7L56.5,49.7z"/>
	</g>
</g>
</svg>
