<?xml version="1.0" encoding="utf-8"?>
<!-- Generator: Adobe Illustrator 27.8.0, SVG Export Plug-In . SVG Version: 6.00 Build 0)  -->
<svg version="1.1" id="Layer_1" xmlns="http://www.w3.org/2000/svg" xmlns:xlink="http://www.w3.org/1999/xlink" x="0px" y="0px"
	 viewBox="0 0 100 100" style="enable-background:new 0 0 100 100;" xml:space="preserve">
<style type="text/css">
	.st0{fill-rule:evenodd;clip-rule:evenodd;fill:none;stroke:#4D4D4D;stroke-miterlimit:10;}
</style>
<g id="Layer_x0020_1">
	<path class="st0" d="M50,39.3c8.7-4,17.4-8.1,26.1-12.1l-9.5-4.4L50.8,30c-0.8,0.4-0.9,0.4-1.7,0l-15.7-7.3l-9.5,4.4
		C32.6,31.2,41.3,35.2,50,39.3L50,39.3z"/>
	<path class="st0" d="M76.1,38.5l-9.5-4.4l-15.7,7.3c-0.8,0.4-0.9,0.4-1.7,0l-15.7-7.3L24,38.5l26,12.1L76.1,38.5L76.1,38.5z"/>
	<path class="st0" d="M50,27.9c8.7-4,17.4-8.1,26.1-12.1L50,3.7L23.9,15.8C32.6,19.8,41.3,23.9,50,27.9z"/>
	<path class="st0" d="M85.3,78.1V30.2H74.9l-5.6,2.6l10,4.6c0.9,0.4,0.9,1.7,0,2.1L50.5,52.9c-0.3,0.1-0.6,0.1-1,0L20.8,39.5
		c-0.9-0.4-0.9-1.7,0-2.1l10-4.6l-5.6-2.6H14.7v47.8h61.5V61c0-0.6,0.5-1.1,1.1-1.1s1.1,0.5,1.1,1.1v17.1H85.3L85.3,78.1z
		 M21.5,49.6c0-0.6,0.5-1.1,1.1-1.1s1.1,0.5,1.1,1.1V61c0,0.6-0.5,1.1-1.1,1.1s-1.1-0.5-1.1-1.1V49.6z M22.7,70.1
		c-1.3,0-2.3-1-2.3-2.3s1-2.3,2.3-2.3s2.3,1,2.3,2.3C25,69.1,23.9,70.1,22.7,70.1z M77.3,56.4c-1.3,0-2.3-1-2.3-2.3
		c0-1.3,1-2.3,2.3-2.3s2.3,1,2.3,2.3C79.6,55.4,78.6,56.4,77.3,56.4z"/>
	<path class="st0" d="M92.1,26.9c0-2-1.6-3.6-3.6-3.6H73.3l5.9,2.8c0.7,0.3,0.9,1.2,0.3,1.8h6.9c0.6,0,1.1,0.5,1.1,1.1v50.1
		c0,0.6-0.5,1.1-1.1,1.1H13.5c-0.6,0-1.1-0.5-1.1-1.1V29.1c0-0.6,0.5-1.1,1.1-1.1h6.9c-0.5-0.6-0.4-1.5,0.3-1.8l5.9-2.8H11.4
		c-2,0-3.6,1.6-3.6,3.6v57.9h84.3L92.1,26.9L92.1,26.9z"/>
	<path class="st0" d="M6.7,87.2H1.1c0.6,5.1,4.9,9.1,10.2,9.1h77.5c5.3,0,9.6-4,10.2-9.1h-5.6H6.7L6.7,87.2z"/>
</g>
</svg>
