<?xml version="1.0" encoding="utf-8"?>
<!-- Generator: Adobe Illustrator 27.8.0, SVG Export Plug-In . SVG Version: 6.00 Build 0)  -->
<svg version="1.1" id="Layer_1" xmlns="http://www.w3.org/2000/svg" xmlns:xlink="http://www.w3.org/1999/xlink" x="0px" y="0px"
	 viewBox="0 0 100 100" style="enable-background:new 0 0 100 100;" xml:space="preserve">
<style type="text/css">
	.st0{fill:none;stroke:#4D4D4D;stroke-miterlimit:10;}
</style>
<g id="Layer_5">
	<path class="st0" d="M26.2,58.2l3.8,0.6c0.7,0.1,1.2,0.6,1.3,1.3c0.5,2.4,1.5,4.8,2.8,6.9c0.4,0.6,0.4,1.3,0,1.8l-2.3,3.2l2.6,2.6
		l3.2-2.3c0.5-0.4,1.3-0.4,1.8,0c2.1,1.4,4.4,2.4,6.9,2.8c0.7,0.1,1.2,0.6,1.3,1.3l0.6,3.8h3.7l0.6-3.8c0.1-0.7,0.6-1.2,1.3-1.3
		c2.4-0.5,4.8-1.5,6.9-2.8c0.6-0.4,1.3-0.4,1.8,0l3.2,2.3l2.6-2.6l-2.3-3.2c-0.4-0.5-0.4-1.3,0-1.8c1.4-2.1,2.4-4.4,2.8-6.9
		c0.1-0.7,0.6-1.2,1.3-1.3l3.8-0.6v-3.7L70,53.9c-0.7-0.1-1.2-0.6-1.3-1.3c-0.5-2.4-1.5-4.8-2.8-6.9c-0.4-0.6-0.4-1.3,0-1.8l2.3-3.2
		l-2.6-2.6l-3.2,2.3c-0.5,0.4-1.3,0.4-1.8,0c-2.1-1.4-4.4-2.4-6.9-2.8c-0.7-0.1-1.2-0.6-1.3-1.3l-0.6-3.8h-3.7l-0.6,3.8
		c-0.1,0.7-0.6,1.2-1.3,1.3c-2.4,0.5-4.8,1.5-6.9,2.8c-0.6,0.4-1.3,0.4-1.8,0l-3.2-2.3l-2.6,2.6l2.3,3.2c0.4,0.5,0.4,1.3,0,1.8
		c-1.4,2.1-2.4,4.4-2.8,6.9c-0.1,0.7-0.6,1.2-1.3,1.3l-3.8,0.6L26.2,58.2z M50,43.7c7,0,12.7,5.7,12.7,12.7c0,7-5.7,12.7-12.7,12.7
		s-12.7-5.7-12.7-12.7C37.3,49.4,43,43.7,50,43.7z"/>
	<circle class="st0" cx="50" cy="56.4" r="9.5"/>
	<path class="st0" d="M71.6,61.8c-0.5,2.1-1.4,4.1-2.5,6l2.4,3.4c0.5,0.6,0.4,1.5-0.2,2l-4.5,4.5c-0.6,0.6-1.4,0.6-2,0.2l-3.4-2.4
		c-1.9,1.1-3.9,1.9-6,2.5l-0.7,4.1c-0.1,0.8-0.8,1.3-1.6,1.3h-6.4c-0.8,0-1.4-0.6-1.6-1.3L44.5,78c-2.1-0.5-4.1-1.4-6-2.5l-3.4,2.4
		c-0.6,0.5-1.5,0.4-2-0.2l-4.5-4.5c-0.6-0.6-0.6-1.4-0.2-2l2.4-3.4c-1.1-1.9-1.9-3.9-2.5-6l-4-0.7H15v35h70v-35h-9.4L71.6,61.8z
		 M72.3,91.4H21.4v-3.2h50.9V91.4z M81.8,91.4h-6.4v-3.2h6.4V91.4z M81.8,85H59.6v-3.2h22.3V85z"/>
	<path class="st0" d="M23,27.6v-1.5c0-3.5-2.8-6.4-6.4-6.4s-6.4,2.8-6.4,6.4v1.5C14.2,29.9,19,29.9,23,27.6z"/>
	<path class="st0" d="M12,17.8c-2.4-2.5-2.3-6.6,0.2-9s6.6-2.3,9,0.2c2.3,2.5,2.3,6.3,0,8.8c2.7,1.5,4.5,4.2,4.9,7.3
		c4.7-5.2,4.3-13.3-1-18s-13.3-4.3-18,1c-4.3,4.8-4.3,12.1,0,17C7.5,22,9.3,19.3,12,17.8z"/>
	<circle class="st0" cx="16.6" cy="13.4" r="3.2"/>
	<path class="st0" d="M78.8,17.8c-2.4-2.5-2.3-6.6,0.2-9s6.6-2.3,9,0.2c2.3,2.5,2.3,6.3,0,8.8c2.7,1.5,4.5,4.2,4.9,7.3
		c4.7-5.2,4.3-13.3-1-18c-5.2-4.7-13.3-4.3-18,1c-4.3,4.8-4.3,12.1,0,17C74.3,22,76.1,19.3,78.8,17.8z"/>
	<path class="st0" d="M77,26.2v1.5c3.9,2.3,8.8,2.3,12.7,0v-1.5c0-3.5-2.8-6.4-6.4-6.4C79.9,19.8,77,22.6,77,26.2z"/>
	<circle class="st0" cx="83.4" cy="13.4" r="3.2"/>
	<circle class="st0" cx="50" cy="7.1" r="3.2"/>
	<circle class="st0" cx="93" cy="40.5" r="3.2"/>
	<circle class="st0" cx="7.1" cy="40.5" r="3.2"/>
	<path class="st0" d="M20.9,52.1l-8.4-8.4c-0.5,0.9-1.3,1.7-2.2,2.2l8.4,8.4L20.9,52.1z"/>
	<path class="st0" d="M48.4,13.2v12.9h3.2V13.2C50.6,13.5,49.5,13.5,48.4,13.2z"/>
	<path class="st0" d="M87.5,43.7l-8.4,8.4l2.2,2.2l8.4-8.4C88.8,45.4,88,44.6,87.5,43.7z"/>
</g>
</svg>
